# xmcd
#
# Track frame offsets: 
#        150
#        13752
#        30279
#        47932
#        62945
#        77642
#        93518
#        105232
#        119805
#        135289
#        154982
#        169680
#        190257
#        206465
#        218597
#        235711
#        248014
#        265290
#        282574
#        298532
#        320825
#        335696
#
# Disc length: 4650 seconds
#
# Revision: 1
# Processed by: cddbd v1.5.2PL0 Copyright (c) Steve Scherf et al.
# Submitted via: ExactAudioCopy v1.3
#
DISCID=41122816
DTITLE=Various Artists  - Now That's What I Call Country Disc 1
DYEAR=2017
DGENRE=Country
TTITLE0=Dolly Parton - 9 To 5 
TTITLE1=Shania Twain - That Don't Impress Me Much 
TTITLE2=Lady Antebellum - Need You Now 
TTITLE3=Carrie Underwood - Before He Cheats 
TTITLE4=Glen Campbell - Rhinestone Cowboy 
TTITLE5=Kenny Rogers - The Gambler 
TTITLE6=Johnny Cash - Ring Of Fire 
TTITLE7=John Denver - Take Me Home, Country Roads 
TTITLE8=Billy Ray Cyrus - Achy Breaky Heart 
TTITLE9=The Mavericks - Dance The Night Away 
TTITLE10=Bellamy Brothers - Let Your Love Flow 
TTITLE11=Sheryl Crow - All I Wanna Do 
TTITLE12=The Charlie Daniels Band - The Devil Went Down To Georgia 
TTITLE13=Tammy Wynette - Stand By Your Man 
TTITLE14=Rascal Flatts - Bless The Broken Road 
TTITLE15=Sam Hunt - Body Like A Back Road 
TTITLE16=Hunter Hayes - Wanted 
TTITLE17=Ward Thomas - Cartwheels 
TTITLE18=Josh Turner - Your Man 
TTITLE19=Tim McGraw - Live Like You Were Dying 
TTITLE20=Maren Morris - My Church 
TTITLE21=Dr. Hook - When You're In Love With A Beautiful Woman
EXTD=
EXTT0=
EXTT1=
EXTT2=
EXTT3=
EXTT4=
EXTT5=
EXTT6=
EXTT7=
EXTT8=
EXTT9=
EXTT10=
EXTT11=
EXTT12=
EXTT13=
EXTT14=
EXTT15=
EXTT16=
EXTT17=
EXTT18=
EXTT19=
EXTT20=
EXTT21=
PLAYORDER=
